<svg width="56" height="56" viewBox="0 0 56 56" fill="none" xmlns="http://www.w3.org/2000/svg">
<rect x="4" y="4" width="48" height="48" rx="24" fill="#E0EAFF"/>
<rect x="4" y="4" width="48" height="48" rx="24" stroke="#EEF4FF" stroke-width="8"/>
<path d="M34.04 29.55C33.62 29.96 33.38 30.55 33.44 31.18C33.53 32.26 34.52 33.05 35.6 33.05H37.5V34.24C37.5 36.31 35.81 38 33.74 38H23.63C23.94 37.74 24.21 37.42 24.42 37.06C24.79 36.46 25 35.75 25 35C25 32.79 23.21 31 21 31C20.06 31 19.19 31.33 18.5 31.88V27.51C18.5 25.44 20.19 23.75 22.26 23.75H33.74C35.81 23.75 37.5 25.44 37.5 27.51V28.95H35.48C34.92 28.95 34.41 29.17 34.04 29.55Z" stroke="#444CE7" stroke-width="1.5" stroke-linecap="round" stroke-linejoin="round"/>
<path d="M18.5 28.4101V23.8401C18.5 22.6501 19.23 21.5901 20.34 21.1701L28.28 18.1701C29.52 17.7001 30.85 18.6201 30.85 19.9501V23.7501" stroke="#444CE7" stroke-width="1.5" stroke-linecap="round" stroke-linejoin="round"/>
<path d="M38.5588 29.9702V32.0302C38.5588 32.5802 38.1188 33.0302 37.5588 33.0502H35.5988C34.5188 33.0502 33.5288 32.2602 33.4388 31.1802C33.3788 30.5502 33.6188 29.9602 34.0388 29.5502C34.4088 29.1702 34.9188 28.9502 35.4788 28.9502H37.5588C38.1188 28.9702 38.5588 29.4202 38.5588 29.9702Z" stroke="#444CE7" stroke-width="1.5" stroke-linecap="round" stroke-linejoin="round"/>
<path d="M23 28H30" stroke="#444CE7" stroke-width="1.5" stroke-linecap="round" stroke-linejoin="round"/>
<path d="M25 35C25 35.75 24.79 36.46 24.42 37.06C24.21 37.42 23.94 37.74 23.63 38C22.93 38.63 22.01 39 21 39C19.54 39 18.27 38.22 17.58 37.06C17.21 36.46 17 35.75 17 35C17 33.74 17.58 32.61 18.5 31.88C19.19 31.33 20.06 31 21 31C23.21 31 25 32.79 25 35Z" stroke="#444CE7" stroke-width="1.5" stroke-miterlimit="10" stroke-linecap="round" stroke-linejoin="round"/>
<path d="M19.4414 34.9995L20.4314 35.9895L22.5614 34.0195" stroke="#444CE7" stroke-width="1.5" stroke-linecap="round" stroke-linejoin="round"/>
</svg>
