<svg width="56" height="56" viewBox="0 0 56 56" fill="none" xmlns="http://www.w3.org/2000/svg">
<rect x="4" y="4" width="48" height="48" rx="24" fill="#E0EAFF"/>
<rect x="4" y="4" width="48" height="48" rx="24" stroke="#EEF4FF" stroke-width="8"/>
<path d="M21.9002 33H34.0902C35.9902 33 36.9902 32 36.9902 30.1V18H18.9902V30.1C19.0002 32 20.0002 33 21.9002 33Z" stroke="#444CE7" stroke-width="1.5" stroke-miterlimit="10" stroke-linecap="round" stroke-linejoin="round"/>
<path d="M18 18H38" stroke="#444CE7" stroke-width="1.5" stroke-miterlimit="10" stroke-linecap="round" stroke-linejoin="round"/>
<path d="M24 38L28 36V33" stroke="#444CE7" stroke-width="1.5" stroke-miterlimit="10" stroke-linecap="round" stroke-linejoin="round"/>
<path d="M32 38L28 36" stroke="#444CE7" stroke-width="1.5" stroke-miterlimit="10" stroke-linecap="round" stroke-linejoin="round"/>
<path d="M23.5 27L26.65 24.37C26.9 24.16 27.23 24.22 27.4 24.5L28.6 26.5C28.77 26.78 29.1 26.83 29.35 26.63L32.5 24" stroke="#444CE7" stroke-width="1.5" stroke-miterlimit="10" stroke-linecap="round" stroke-linejoin="round"/>
</svg>
