<svg width="56" height="56" viewBox="0 0 56 56" fill="none" xmlns="http://www.w3.org/2000/svg">
<rect x="4" y="4" width="48" height="48" rx="24" fill="#E0EAFF"/>
<rect x="4" y="4" width="48" height="48" rx="24" stroke="#EEF4FF" stroke-width="8"/>
<path d="M37.6602 26.44L36.6802 30.62C35.8402 34.23 34.1802 35.69 31.0602 35.39C30.5602 35.35 30.0202 35.26 29.4402 35.12L27.7602 34.72C23.5902 33.73 22.3002 31.67 23.2802 27.49L24.2602 23.3C24.4602 22.45 24.7002 21.71 25.0002 21.1C26.1702 18.68 28.1602 18.03 31.5002 18.82L33.1702 19.21C37.3602 20.19 38.6402 22.26 37.6602 26.44Z" stroke="#444CE7" stroke-width="1.5" stroke-linecap="round" stroke-linejoin="round"/>
<path d="M31.0603 35.3901C30.4403 35.8101 29.6603 36.1601 28.7103 36.4701L27.1303 36.9901C23.1603 38.2701 21.0703 37.2001 19.7803 33.2301L18.5003 29.2801C17.2203 25.3101 18.2803 23.2101 22.2503 21.9301L23.8303 21.4101C24.2403 21.2801 24.6303 21.1701 25.0003 21.1001C24.7003 21.7101 24.4603 22.4501 24.2603 23.3001L23.2803 27.4901C22.3003 31.6701 23.5903 33.7301 27.7603 34.7201L29.4403 35.1201C30.0203 35.2601 30.5603 35.3501 31.0603 35.3901Z" stroke="#444CE7" stroke-width="1.5" stroke-linecap="round" stroke-linejoin="round"/>
<path d="M28.6406 24.53L33.4906 25.76" stroke="#444CE7" stroke-width="1.5" stroke-linecap="round" stroke-linejoin="round"/>
<path d="M27.6602 28.3999L30.5602 29.1399" stroke="#444CE7" stroke-width="1.5" stroke-linecap="round" stroke-linejoin="round"/>
</svg>
