<svg width="56" height="56" viewBox="0 0 56 56" fill="none" xmlns="http://www.w3.org/2000/svg">
<rect x="4" y="4" width="48" height="48" rx="24" fill="#E0EAFF"/>
<rect x="4" y="4" width="48" height="48" rx="24" stroke="#EEF4FF" stroke-width="8"/>
<g clip-path="url(#clip0_140_16243)">
<path d="M39.2493 27.84C38.4468 27.1787 37.1785 27.1219 36.346 28.0153L34.2794 30.2338C34.0122 29.3751 33.2103 28.7498 32.2649 28.7498H28.577C28.2971 28.7498 28.2034 28.6429 27.7173 28.2685C25.864 26.6528 23.0803 26.6579 21.2326 28.2839L19.877 29.4773C19.2677 29.1548 18.5562 29.1468 17.9435 29.4529L16.3888 30.23C16.0414 30.4039 15.9009 30.8262 16.0743 31.1736L20.2928 39.6106C20.4667 39.9579 20.889 40.0985 21.2363 39.9251L22.7911 39.1475C23.5574 38.7646 23.9839 37.9827 23.9563 37.1868H32.2648C33.8055 37.1868 35.2778 36.451 36.2021 35.2182L39.5774 30.7176C40.2322 29.8452 40.1286 28.5661 39.2493 27.84ZM22.162 37.8899L21.2363 38.353L17.6463 31.1736L18.5725 30.7105C18.9199 30.5371 19.3417 30.6772 19.5156 31.025L22.4765 36.9468C22.65 37.2941 22.5093 37.716 22.162 37.8899ZM38.4524 29.8738L35.0772 34.3745C34.4168 35.2552 33.3654 35.7806 32.2649 35.7806H23.4655L20.8308 30.5108L22.1615 29.3395C23.4857 28.1747 25.4824 28.1747 26.8066 29.3395C27.5865 30.0262 28.0716 30.156 28.5769 30.156H32.2648C32.6525 30.156 32.9679 30.4715 32.9679 30.8591C32.9679 31.2467 32.6524 31.5622 32.2648 31.5622H28.674C28.2858 31.5622 27.9709 31.8772 27.9709 32.2653C27.9709 32.6533 28.2859 32.9683 28.674 32.9683H32.7359C33.3195 32.9683 33.882 32.7236 34.2794 32.2967L37.3749 28.9739C37.658 28.6701 38.092 28.6954 38.3582 28.9284C38.6366 29.1721 38.6667 29.5888 38.4524 29.8738Z" fill="#444CE7"/>
<path d="M30.784 20.7983C31.2653 20.2935 31.562 19.6111 31.562 18.8597C31.562 17.312 30.3115 16.0005 28.7497 16.0005C27.1997 16.0005 25.8905 17.3096 25.8905 18.8597C25.8905 19.5881 26.176 20.2757 26.6944 20.804C25.4087 21.5248 24.4844 22.9085 24.4844 24.5312V25.2343C24.4844 25.6224 24.7994 25.9374 25.1875 25.9374H32.2652C32.6532 25.9374 32.9682 25.6224 32.9682 25.2343V24.5312C32.9682 22.9404 32.0932 21.5352 30.784 20.7983ZM28.7497 17.4067C29.5119 17.4067 30.1559 18.0723 30.1559 18.8597C30.1559 19.635 29.525 20.2659 28.7497 20.2659C27.9623 20.2659 27.2967 19.6219 27.2967 18.8597C27.2967 18.0859 27.9759 17.4067 28.7497 17.4067ZM25.8905 24.5312C25.8905 22.9812 27.1997 21.672 28.7497 21.672C30.3003 21.672 31.562 22.9544 31.562 24.5312H25.8905Z" fill="#444CE7"/>
</g>
<defs>
<clipPath id="clip0_140_16243">
<rect width="24" height="24" fill="white" transform="translate(16 16)"/>
</clipPath>
</defs>
</svg>
