<svg width="25" height="24" viewBox="0 0 25 24" fill="none" xmlns="http://www.w3.org/2000/svg">
<path d="M21.667 5.97998C18.337 5.64998 14.987 5.47998 11.647 5.47998C9.66699 5.47998 7.68699 5.57998 5.70699 5.77998L3.66699 5.97998" stroke="#B42318" stroke-width="1.5" stroke-linecap="round" stroke-linejoin="round"/>
<path d="M9.16699 4.97L9.38699 3.66C9.54699 2.71 9.66699 2 11.357 2H13.977C15.667 2 15.797 2.75 15.947 3.67L16.167 4.97" stroke="#B42318" stroke-width="1.5" stroke-linecap="round" stroke-linejoin="round"/>
<path d="M19.5174 9.14014L18.8674 19.2101C18.7574 20.7801 18.6674 22.0001 15.8774 22.0001H9.45738C6.66738 22.0001 6.57738 20.7801 6.46738 19.2101L5.81738 9.14014" stroke="#B42318" stroke-width="1.5" stroke-linecap="round" stroke-linejoin="round"/>
<path d="M10.9971 16.5H14.3271" stroke="#B42318" stroke-width="1.5" stroke-linecap="round" stroke-linejoin="round"/>
<path d="M10.167 12.5H15.167" stroke="#B42318" stroke-width="1.5" stroke-linecap="round" stroke-linejoin="round"/>
</svg>
